<svg width="319" height="100" viewBox="0 0 319 100" fill="none" xmlns="http://www.w3.org/2000/svg">
<mask id="mask0_392_83" style="mask-type:alpha" maskUnits="userSpaceOnUse" x="0" y="0" width="140" height="100">
<rect width="139.904" height="100" fill="#D9D9D9"/>
</mask>
<g mask="url(#mask0_392_83)">
<rect x="0.00012207" y="-0.000244141" width="82.2115" height="100" fill="#FFC700" fill-opacity="0.8"/>
<rect x="-19.2308" y="7.93066" width="89.7631" height="143.228" transform="rotate(-21.1929 -19.2308 7.93066)" fill="#E5A600" fill-opacity="0.6"/>
<rect x="0.00012207" y="-0.000244141" width="74.0385" height="100" fill="#E5A600"/>
<rect x="-15.3846" y="38.3579" width="89.7631" height="143.228" transform="rotate(-34.5122 -15.3846 38.3579)" fill="#A67C00" fill-opacity="0.2"/>
<rect x="12.3191" y="-16.3464" width="89.7631" height="143.228" transform="rotate(10.3695 12.3191 -16.3464)" fill="#C58B00" fill-opacity="0.4"/>
<g clip-path="url(#clip0_392_83)">
<g filter="url(#filter0_b_392_83)">
<g filter="url(#filter1_d_392_83)">
<path d="M8.04362 49.0434C7.19385 51.9342 7.95932 55.1251 8.84956 57.9169C9.81567 60.9435 11.1848 63.7572 12.9619 66.3964C16.2143 71.2322 20.5896 75.4124 25.7658 78.1523C30.8038 80.8184 36.5212 82.3258 42.2217 82.5354C46.5482 82.6947 50.6689 81.9217 54.788 80.6759C55.4674 80.4696 56.1452 80.2533 56.818 80.0236C58.182 79.4401 59.5022 78.7727 60.7718 78.0282C60.7583 77.77 60.8746 77.5017 61.1815 77.3072C61.7666 76.9366 62.3348 76.5476 62.8912 76.1418C63.1677 75.9172 63.4459 75.6975 63.7409 75.503C66.41 73.4255 68.7384 70.9505 70.7263 68.2006C72.006 66.4316 73.1576 64.5738 74.2367 62.6773C74.3581 62.4644 74.4795 62.2548 74.5958 62.0452C74.9212 61.1732 75.2112 60.2879 75.4692 59.4009C75.5096 58.5357 75.4692 57.6889 75.545 56.8337L74.6363 56.7801L73.6078 56.718L73.2368 55.6348C72.559 53.6713 71.8593 52.6083 70.996 52.2612C70.3183 51.9946 70.1732 51.8319 69.7821 50.6665C69.2476 49.1122 68.9593 48.5605 67.602 46.6372C66.9849 45.7787 66.4302 45.1852 66.2043 45.165C65.9986 45.165 65.3815 45.3897 64.8268 45.6765C63.8185 46.1879 60.2828 47.6198 59.2139 47.9669C58.7822 48.0893 58.4332 48.4985 57.919 49.4593C56.6645 51.7699 56.5819 51.8118 53.7645 51.8118C52.4477 51.8118 50.9673 51.8939 50.4952 51.9962L49.6118 52.1807V51.24C49.6118 50.3815 49.5713 50.2993 49.057 50.2373C48.5023 50.1752 48.4821 50.1149 48.3169 48.6427C48.2342 47.8043 47.8431 43.8773 47.4536 39.9519L46.7336 32.7938L47.1653 32.4249C47.4114 32.2404 47.72 32.0778 47.8852 32.0778C48.1112 32.0778 48.1735 31.7508 48.1735 30.7682C48.1735 30.0522 48.2359 29.1736 48.2966 28.8248L48.4399 28.191H46.3222V24.5507L47.2479 24.4283C47.865 24.326 48.2562 24.1416 48.3792 23.8767C48.6254 23.4273 48.4416 23.3049 47.4334 23.2227C46.9596 23.1825 46.8163 23.0383 46.6527 22.4866C46.4065 21.6281 45.4388 20.6673 44.3091 20.1559C43.6515 19.8691 43.4661 19.7065 43.6313 19.5422C43.7544 19.4198 43.8572 19.1733 43.8572 19.0106C43.8572 18.6837 42.849 17.1494 42.6433 17.1494C42.4578 17.1695 41.5945 18.5814 41.5945 18.8882C41.5945 19.0526 41.6974 19.2353 41.8002 19.2974C42.1914 19.5422 42.0059 19.7467 41.2034 19.9714C40.298 20.2582 38.7147 21.8327 38.7147 22.4665C38.7147 22.8957 38.6321 22.9578 37.6255 23.1825C37.1737 23.2646 37.0506 23.4072 37.1113 23.7542C37.1518 24.1231 37.3372 24.2254 38.0976 24.3059L39.0233 24.4082L39.0857 26.2895L39.1481 28.1709L38.1617 28.2329L37.1956 28.295L37.1551 30.0941L37.0928 31.9135L38.5731 32.772L38.4298 34.8176C38.3674 35.9629 38.1617 38.1712 37.9982 39.7457C37.8127 41.3202 37.5463 44.2244 37.3608 46.1879C37.1956 48.1514 37.0118 49.8885 36.9697 50.0327C36.9073 50.1551 36.6814 50.2775 36.4554 50.2775C36.0845 50.2775 36.044 50.3999 36.044 51.8118C36.044 53.2236 36.0036 53.346 35.6326 53.346C35.3645 53.346 35.2212 53.4886 35.2212 53.7552C35.2212 54.3068 34.5013 54.451 32.6719 54.2867L31.1915 54.1643L30.4109 54.9625C29.2593 56.1278 27.8194 56.7013 26.3812 56.5571C24.0157 56.2905 22.4746 55.5963 19.8208 53.5104C19.143 52.9788 18.3202 52.4054 17.9914 52.2427C16.7167 51.5888 11.7192 50.0545 10.1158 49.8097L8.42973 49.585L8.46177 48.8456C8.34206 48.968 8.19706 49.03 8.04868 49.0468L8.04362 49.0434ZM57.1383 78.2932C57.0557 78.2932 56.0491 78.7023 54.8756 79.2137C53.0867 79.9901 50.4345 80.748 49.5494 80.748C48.8294 80.748 54.7306 77.6593 56.9107 76.9031C59.0705 76.1469 61.3316 75.7981 61.3316 76.2072C61.3316 76.3716 57.4452 78.2932 57.1366 78.2932H57.1383ZM64.4794 73.8564C64.0056 74.2454 63.6364 74.3058 61.9503 74.3276C58.7839 74.3896 56.1098 75.2062 52.0801 77.3743C49.6337 78.6838 47.371 79.5826 44.3698 80.4629C42.5185 80.9944 42.0262 81.0565 39.3318 81.0565C33.5132 81.0565 28.2275 79.2774 22.6955 75.4527C20.5154 73.9604 17.3085 70.9941 16.0119 69.2972C15.0661 68.0698 12.8253 64.3893 11.817 62.4459C10.8711 60.6266 9.71957 57.4357 9.71957 56.6174V55.9015L10.1107 56.5152C10.3164 56.8421 11.3028 58.4988 12.2908 60.1756C13.2772 61.8523 14.5737 64.3474 15.1487 65.7374C16.0946 68.048 16.3407 68.4169 17.8009 70.0115C21.4191 73.9168 27.4047 77.599 32.2976 78.9069C35.4438 79.7452 39.6185 79.9498 42.682 79.4183C45.4573 78.927 47.7824 78.0886 51.463 76.2072C56.7691 73.4875 60.0383 72.6089 63.3278 73.0163C65.0139 73.2209 65.1791 73.3232 64.4794 73.8547V73.8564ZM67.0507 71.4838L66.5769 71.9331L65.137 71.524C63.9652 71.197 63.2655 71.135 61.4361 71.197C58.5782 71.2993 57.1586 71.7487 52.183 74.1834C45.4995 77.4548 43.053 78.1506 38.4062 78.1506C36.103 78.1506 35.1369 78.0685 33.5739 77.6795C31.3332 77.1479 29.2559 76.4118 28.2679 75.7981C27.897 75.5734 27.0961 75.1442 26.5195 74.8776C25.3881 74.3259 22.4679 72.2802 20.6587 70.7678C19.2188 69.5404 16.7521 66.4316 17.2242 66.4316C17.3068 66.4316 17.553 66.5339 17.7992 66.6764C18.0453 66.7988 19.0941 67.6372 20.1023 68.5377C21.8912 70.092 26.1064 73.1589 28.0184 74.2639C30.6503 75.778 34.5569 76.7187 38.3 76.7388C42.7411 76.7589 46.0103 75.7981 52.0768 72.7313C56.7236 70.4006 58.7182 69.807 61.8441 69.8271C63.7561 69.8472 66.8618 70.4609 67.3558 70.9103C67.4385 70.9925 67.2935 71.2574 67.0473 71.4821L67.0507 71.4838ZM69.2105 69.1933C68.7586 69.807 68.7165 69.807 67.7504 69.3157C65.6125 68.2325 62.9805 67.7814 60.4717 68.0682C57.7773 68.375 55.2685 69.3559 49.2847 72.4244C46.7353 73.7122 43.5689 74.735 41.1005 75.0419C38.4686 75.3487 34.6024 75.1643 32.4426 74.6327C30.4885 74.1213 28.5562 73.2008 28.4736 72.7112C28.3708 72.24 28.885 72.2618 30.6115 72.7933C35.1352 74.1834 40.6048 74.123 45.0881 72.629C45.9311 72.3423 48.6659 71.1149 51.1545 69.9093C55.4118 67.8233 57.5093 67.0252 59.6876 66.6161C61.1478 66.3495 64.0259 66.554 65.6917 67.0453C66.5145 67.2901 67.7268 67.7613 68.386 68.0883L69.5781 68.702L69.2071 69.1933H69.2105ZM66.0643 50.7672C66.0643 50.8074 65.6327 51.2786 65.0982 51.79C64.1523 52.6904 63.4526 53.0375 61.5811 53.5489C61.0871 53.6713 60.3267 54.1006 59.8748 54.5097C59.1144 55.1838 59.0318 55.2257 58.7232 54.9189C58.4349 54.6321 58.4349 54.55 58.6828 54.2448C59.0942 53.7334 60.9657 52.7307 63.4948 51.6676C65.6951 50.7269 66.0643 50.6045 66.0643 50.7672ZM56.8095 52.7508C57.4266 52.3215 58.0437 51.5854 58.6811 50.5223L59.6269 48.9478L61.4563 48.314C62.4646 47.9451 63.7595 47.4756 64.3142 47.2509C64.8891 47.0061 65.5062 46.8217 65.7119 46.8217C66.061 46.8016 66.061 46.8217 65.7119 47.4555C64.8487 49.0099 62.2774 50.8711 60.0569 51.5871C59.8714 51.6491 59.5224 52.0365 59.2965 52.4657C58.6187 53.7954 57.2816 54.8987 55.513 55.5745C53.9095 56.2083 53.3126 56.3307 53.3126 56.0457C53.3126 55.8008 55.7591 53.4902 56.8079 52.7525L56.8095 52.7508ZM48.6878 53.4668C51.3821 52.9553 52.2858 52.8732 52.2858 53.1197C52.2858 53.4466 51.7716 53.7133 49.4077 54.5718C48.1128 55.0429 46.447 55.779 45.7068 56.2083C44.9667 56.6577 43.692 57.2915 42.849 57.6403C42.0059 57.9672 40.937 58.5809 40.4632 58.97C39.6606 59.6239 39.5375 59.6658 38.4888 59.5417C37.7486 59.4797 36.9882 59.5417 36.2683 59.7664C35.0543 60.1135 33.9853 60.1957 33.9853 59.9308C33.9853 59.4395 35.754 58.5407 39.2088 57.3334C40.0923 57.0064 41.1005 56.5353 41.4715 56.2905C43.2401 55.0027 45.749 54.0201 48.6895 53.4684L48.6878 53.4668ZM46.6729 29.2138C46.8584 29.2138 46.941 29.4804 46.941 30.0321C46.941 30.7062 46.8786 30.8504 46.5296 30.8504C46.2009 30.8504 46.1182 30.7078 46.1182 30.1763C46.1182 29.4402 46.2413 29.2155 46.6729 29.2155V29.2138ZM45.0897 24.5105V28.0082L44.3293 27.9462L43.5487 27.8842L43.4863 26.1873L43.4239 24.5105H45.0897ZM44.9869 29.8678C44.9667 30.1344 44.9245 30.4614 44.9043 30.5838C44.9043 30.7263 44.739 30.8504 44.5755 30.8504C44.3698 30.8504 44.2669 30.6257 44.2669 30.1344C44.2669 29.5827 44.3496 29.4184 44.6581 29.4184C44.9262 29.4184 45.029 29.5408 44.9869 29.8678ZM43.2384 29.9298C43.2384 30.401 43.1154 30.7062 42.9097 30.7883C42.4983 30.9309 42.2099 30.5217 42.2099 29.7655C42.2099 29.3161 42.2926 29.2138 42.7242 29.2138C43.1558 29.2138 43.2384 29.296 43.2384 29.9298ZM41.4698 21.3196C42.0447 21.053 42.5387 20.8903 42.5809 20.9306C42.6433 20.9708 42.4376 21.2994 42.129 21.6465C41.4512 22.4648 41.4512 22.5872 42.2116 22.7297C43.343 22.9745 42.8692 23.2814 41.3888 23.2814C40.6082 23.2814 39.9489 23.1992 39.9489 23.0768C39.9489 22.443 40.5458 21.7471 41.4715 21.3179L41.4698 21.3196ZM41.141 28.1508L40.3603 28.2128V24.5122H42.0262L41.9638 26.2912L41.9014 28.0904L41.141 28.1524V28.1508ZM41.2641 30.2149C41.1612 30.6441 41.0179 30.8487 40.7498 30.8487C40.4413 30.8487 40.3587 30.6844 40.3587 30.0304C40.3587 29.3765 40.421 29.2122 40.7498 29.2122C40.9758 29.2122 41.2017 29.2943 41.2641 29.3966C41.3265 29.4989 41.3265 29.8678 41.2641 30.2149ZM38.509 30.1545C38.509 29.6632 38.6119 29.4184 38.88 29.3564C39.0654 29.2943 39.2509 29.2541 39.2914 29.234C39.3116 29.234 39.3318 29.5811 39.3318 30.0321C39.3318 30.7062 39.2695 30.8504 38.9204 30.8504C38.5917 30.8504 38.509 30.7078 38.509 30.1545ZM38.386 49.5817C38.4483 49.2346 38.6321 47.2509 38.8176 45.165C38.9828 43.0791 39.1666 41.1575 39.229 40.8708C39.3116 40.3996 39.9489 33.1006 39.9489 32.5473C39.9489 32.3628 40.6487 32.3025 42.704 32.3226L45.4792 32.3427L45.5821 33.6925C45.8906 37.2104 46.157 39.8882 46.3222 41.3822C46.4251 42.2826 46.6106 44.3065 46.7336 45.881C46.8567 47.4555 47.0017 49.0719 47.0624 49.4794L47.1653 50.2155H38.2612L38.3843 49.5817H38.386ZM37.0691 52.4657C37.0691 52.0767 37.1315 51.7095 37.2344 51.6273C37.317 51.5251 37.9341 51.5251 38.6119 51.5871C39.2897 51.6693 40.8527 51.8118 42.1071 51.9342C43.6296 52.0566 44.4726 52.2209 44.6767 52.4456C45.2516 52.9973 44.5114 53.1415 40.7279 53.1415H37.0675V52.4674L37.0691 52.4657ZM36.8028 54.5097C37.0287 54.2649 40.3199 54.3454 40.4632 54.5919C40.7094 54.9608 40.4008 55.0631 38.509 55.1435C36.9865 55.2257 36.6578 55.1838 36.6578 54.939C36.6578 54.7747 36.7201 54.5701 36.8011 54.5097H36.8028ZM27.8161 57.6386C28.391 57.6386 29.3588 57.1272 30.5711 56.1865L31.5793 55.3884H34.2315C36.1857 55.3884 36.8837 55.4504 36.823 55.6332C36.6999 55.9601 36.4116 56.1043 34.4996 56.6761C33.5942 56.9629 32.2993 57.4323 31.6215 57.7191C30.0383 58.3931 27.4063 58.4552 27.4063 57.8214C27.4063 57.7191 27.5918 57.6369 27.8177 57.6369L27.8161 57.6386ZM22.6129 56.6376C23.2704 56.9846 24.2163 57.6185 24.7306 58.0494C27.6711 60.4422 30.0366 61.5254 33.8606 62.1592C38.4264 62.9355 44.5131 62.3638 48.0285 60.7893C53.0041 58.6011 54.4861 58.0293 56.7269 57.5179C61.7851 56.3525 66.8231 56.884 71.8812 59.1125L74.3075 60.1756L74.1642 60.8094C73.9787 61.7299 73.8556 61.7702 72.8473 61.1364C71.367 60.2158 69.1869 59.3372 66.9664 58.7637C65.2601 58.3143 64.4777 58.2322 62.1341 58.2121C58.0825 58.2121 54.9987 58.9884 50.5576 61.1565C48.6861 62.0569 45.1909 63.2223 43.2368 63.5895C41.2017 63.9584 35.2381 63.9165 33.4492 63.5073C30.5289 62.8333 27.9172 61.8926 26.479 60.972C25.0593 60.0515 22.1189 57.2915 21.667 56.4313C21.4411 56.0423 21.5237 56.0624 22.6129 56.6359V56.6376ZM17.9459 53.5489C18.5427 53.8558 19.057 54.3873 19.7348 55.4504C23.0867 60.6031 23.8471 61.4013 26.8297 62.8936C30.6132 64.7951 33.5537 65.3887 38.9828 65.4088C40.9977 65.4088 42.3971 65.4909 42.3347 65.5932C42.2521 65.6955 41.78 65.9403 41.2236 66.1248C39.0435 66.9011 33.5942 66.6966 30.1816 65.7156C26.8921 64.7548 23.2114 62.6069 21.6484 60.6853C20.8054 59.6423 18.976 56.9846 18.976 56.7801C18.976 56.6376 18.2561 55.3682 17.29 53.7937C16.8162 53.0174 16.8786 52.9956 17.9475 53.5489H17.9459ZM14.4709 52.3836C15.6629 53.1817 17.0202 55.1033 18.1516 57.5984C19.4886 60.5428 20.2288 61.5656 22.2841 63.3447C24.7103 65.4306 27.5901 66.7804 31.3736 67.5785C34.7879 68.3146 40.3384 67.8854 43.547 66.658C44.9869 66.1063 48.7502 64.2451 50.9505 63.0177C53.3767 61.6277 57.14 60.3801 59.7517 60.0733C63.2688 59.6641 67.3609 60.4204 70.814 62.1391C72.6653 63.0797 72.9738 63.3665 72.6433 63.9584C72.5202 64.2032 72.3752 64.3876 72.3348 64.3876C72.2943 64.3876 71.7177 64.0607 71.0399 63.6716C68.4703 62.1793 64.1726 61.1967 61.1292 61.3812C59.0318 61.5237 56.1115 62.1374 54.5485 62.793C53.9314 63.0596 52.2251 63.9181 50.7448 64.6945C46.9613 66.7184 43.5065 68.2124 41.2034 68.8043C37.5632 69.7852 31.6215 69.5001 28.1465 68.1906C24.5282 66.8206 22.1003 65.2864 19.9624 62.9959C18.6877 61.6461 17.9273 60.4187 16.0962 56.718C15.2735 55.0211 14.39 53.3645 14.1421 53.0375C13.1962 51.7699 13.2788 51.5854 14.4709 52.3836ZM12.7224 53.0174C13.7088 54.1006 14.2854 55.2056 15.6832 58.5189C17.3068 62.4459 19.4667 65.1439 22.6331 67.2096C27.1366 70.1541 32.0514 71.2389 38.5276 70.7476C42.414 70.4408 44.5738 69.7248 50.6807 66.6982C56.705 63.7119 58.0623 63.3028 61.743 63.2826C63.8606 63.2826 64.8487 63.3648 65.8553 63.6515C67.5008 64.1227 70.3587 65.4507 70.8308 65.9621C71.1394 66.2891 71.1394 66.3713 70.8713 66.7385C70.6251 67.0654 70.5004 67.1074 70.1716 66.881C69.9456 66.7385 68.8548 66.2673 67.7251 65.8179C62.441 63.732 58.4298 64.3256 50.7195 68.2928C44.879 71.3194 41.4664 72.24 36.243 72.2199C33.3227 72.2199 32.4999 72.1377 30.3822 71.6682C25.8383 70.6454 24.7272 70.2362 22.3633 68.6617C18.4146 66.0443 15.9681 63.2826 14.5704 59.8486C13.09 56.2083 12.2048 54.327 11.2809 52.8749C10.7666 52.0365 10.335 51.3004 10.335 51.2182C10.335 50.9114 11.8777 52.0767 12.7208 53.0174H12.7224ZM9.20701 51.8721C10.1327 52.6485 11.2016 54.1827 11.962 55.8193C12.9484 57.9253 14.4507 61.5254 14.3478 61.5254C14.3073 61.5254 13.3817 59.8888 12.2706 57.8851C11.1814 55.9014 10.0703 53.9799 9.8241 53.6512C8.52921 51.8721 8.26113 51.0539 9.20701 51.8721Z" fill="#FFFEFF"/>
</g>
<path d="M43.8134 35.0038C43.8134 34.5361 43.4322 34.157 42.9619 34.157C42.4917 34.157 42.1105 34.5361 42.1105 35.0038V36.4357C42.1105 36.9034 42.4917 37.2825 42.9619 37.2825C43.4322 37.2825 43.8134 36.9034 43.8134 36.4357V35.0038Z" fill="white"/>
<path d="M43.0361 39.1907H42.8877C42.4175 39.1907 42.0363 39.5698 42.0363 40.0374V41.7394C42.0363 42.207 42.4175 42.5862 42.8877 42.5862H43.0361C43.5063 42.5862 43.8875 42.207 43.8875 41.7394V40.0374C43.8875 39.5698 43.5063 39.1907 43.0361 39.1907Z" fill="white"/>
<path d="M43.1087 44.1052H42.8136C42.3434 44.1052 41.9622 44.4843 41.9622 44.952V46.9239C41.9622 47.3915 42.3434 47.7707 42.8136 47.7707H43.1087C43.5789 47.7707 43.9601 47.3915 43.9601 46.9239V44.952C43.9601 44.4843 43.5789 44.1052 43.1087 44.1052Z" fill="white"/>
</g>
</g>
</g>
<path d="M146.2 24.76C145.973 24.76 145.767 24.7533 145.58 24.74C145.393 24.7133 145.167 24.6667 144.9 24.6V29.28C144.9 29.6 144.907 29.84 144.92 30C144.947 30.1467 145.007 30.2667 145.1 30.36C145.207 30.4533 145.353 30.5133 145.54 30.54C145.727 30.5667 146.047 30.5933 146.5 30.62C146.513 30.7533 146.513 30.8867 146.5 31.02C146.287 31.02 146.027 31.0133 145.72 31C145.413 31 145.113 31 144.82 31C144.527 30.9867 144.287 30.98 144.1 30.98C143.807 30.98 143.433 30.9867 142.98 31C142.527 31.0133 142.147 31.02 141.84 31.02C141.827 30.8867 141.827 30.7533 141.84 30.62C142.307 30.58 142.64 30.54 142.84 30.5C143.053 30.46 143.18 30.3667 143.22 30.22C143.273 30.06 143.3 29.8067 143.3 29.46V18.72C143.3 18.32 143.273 18.0333 143.22 17.86C143.167 17.6867 143.04 17.5733 142.84 17.52C142.64 17.4533 142.307 17.4067 141.84 17.38C141.827 17.2467 141.827 17.1133 141.84 16.98C142.04 16.98 142.28 16.9867 142.56 17C142.853 17 143.14 17.0067 143.42 17.02C143.7 17.02 143.927 17.02 144.1 17.02C144.287 17.02 144.553 17.02 144.9 17.02C145.247 17.0067 145.593 17 145.94 17C146.3 16.9867 146.56 16.98 146.72 16.98C147.493 16.98 148.207 17.0933 148.86 17.32C149.527 17.5467 150.06 17.9267 150.46 18.46C150.873 18.98 151.08 19.7 151.08 20.62C151.08 21.54 150.867 22.3067 150.44 22.92C150.013 23.5333 149.433 23.9933 148.7 24.3C147.967 24.6067 147.133 24.76 146.2 24.76ZM144.9 24.04C145.113 24.0933 145.307 24.1267 145.48 24.14C145.667 24.1533 145.82 24.16 145.94 24.16C147.047 24.16 147.887 23.8533 148.46 23.24C149.047 22.6267 149.34 21.7933 149.34 20.74C149.34 19.7533 149.067 18.98 148.52 18.42C147.973 17.8467 147.147 17.56 146.04 17.56C145.893 17.56 145.713 17.5667 145.5 17.58C145.287 17.58 145.087 17.5933 144.9 17.62V24.04ZM167.153 23.9C167.153 25.34 166.853 26.6133 166.253 27.72C165.653 28.8133 164.806 29.6733 163.713 30.3C162.619 30.9267 161.326 31.24 159.833 31.24C158.353 31.24 157.079 30.9333 156.013 30.32C154.946 29.7067 154.126 28.8667 153.553 27.8C152.979 26.72 152.693 25.4933 152.693 24.12C152.693 22.7067 152.993 21.4467 153.593 20.34C154.193 19.2333 155.039 18.3667 156.133 17.74C157.239 17.1 158.539 16.78 160.033 16.78C161.499 16.78 162.759 17.0867 163.813 17.7C164.879 18.3 165.699 19.14 166.273 20.22C166.859 21.2867 167.153 22.5133 167.153 23.9ZM165.373 24.1C165.373 23.26 165.273 22.44 165.073 21.64C164.873 20.84 164.559 20.12 164.133 19.48C163.706 18.84 163.146 18.3333 162.453 17.96C161.759 17.5733 160.919 17.38 159.933 17.38C158.946 17.38 158.106 17.5733 157.413 17.96C156.719 18.3333 156.159 18.84 155.733 19.48C155.306 20.12 154.993 20.8333 154.793 21.62C154.593 22.3933 154.493 23.18 154.493 23.98C154.493 24.78 154.593 25.5733 154.793 26.36C154.993 27.1467 155.313 27.8667 155.753 28.52C156.193 29.1733 156.766 29.6933 157.473 30.08C158.179 30.4667 159.033 30.66 160.033 30.66C161.019 30.66 161.853 30.4733 162.533 30.1C163.226 29.7267 163.779 29.2333 164.193 28.62C164.606 27.9933 164.906 27.2867 165.093 26.5C165.279 25.7133 165.373 24.9133 165.373 24.1ZM173.273 24.48L172.773 24.44V29.28C172.773 29.68 172.799 29.9733 172.853 30.16C172.906 30.3333 173.033 30.4467 173.233 30.5C173.446 30.54 173.793 30.58 174.273 30.62C174.286 30.7533 174.286 30.8867 174.273 31.02C174.086 31.02 173.839 31.0133 173.533 31C173.239 31 172.946 31 172.653 31C172.373 30.9867 172.139 30.98 171.953 30.98C171.779 30.98 171.546 30.9867 171.253 31C170.973 31 170.693 31 170.413 31C170.133 31.0133 169.899 31.02 169.713 31.02C169.699 30.8867 169.699 30.7533 169.713 30.62C170.179 30.58 170.513 30.54 170.713 30.5C170.926 30.46 171.053 30.3667 171.093 30.22C171.146 30.06 171.173 29.8067 171.173 29.46V18.7C171.173 18.3 171.146 18.0133 171.093 17.84C171.039 17.6667 170.906 17.5533 170.693 17.5C170.493 17.4467 170.166 17.4067 169.713 17.38C169.699 17.2467 169.699 17.1133 169.713 16.98C169.899 16.98 170.133 16.9867 170.413 17C170.706 17 170.993 17.0067 171.273 17.02C171.566 17.02 171.799 17.02 171.973 17.02C172.146 17.02 172.406 17.02 172.753 17.02C173.099 17.0067 173.446 17 173.793 17C174.139 16.9867 174.393 16.98 174.553 16.98C175.313 16.98 176.019 17.0933 176.673 17.32C177.326 17.5467 177.853 17.9133 178.253 18.42C178.666 18.9133 178.873 19.58 178.873 20.42C178.873 21.4067 178.579 22.2067 177.993 22.82C177.406 23.4333 176.619 23.8933 175.633 24.2V24.26C175.819 24.3533 175.993 24.4733 176.153 24.62C176.326 24.7533 176.519 24.9533 176.733 25.22C176.893 25.42 177.119 25.74 177.413 26.18C177.719 26.62 178.039 27.1 178.373 27.62C178.719 28.1267 179.033 28.6 179.313 29.04C179.619 29.52 179.879 29.8667 180.093 30.08C180.306 30.28 180.539 30.4133 180.793 30.48C181.046 30.5333 181.386 30.58 181.813 30.62C181.826 30.7533 181.826 30.8867 181.813 31.02C181.626 31.02 181.386 31.0133 181.093 31C180.799 31 180.513 31 180.233 31C179.966 30.9867 179.759 30.98 179.613 30.98C179.453 30.98 179.299 30.9867 179.153 31C179.006 31 178.859 31 178.713 31C178.566 30.7467 178.353 30.4 178.073 29.96C177.793 29.5067 177.479 29.0133 177.133 28.48C176.786 27.9467 176.439 27.4267 176.093 26.92C175.759 26.4 175.459 25.96 175.193 25.6C174.966 25.28 174.766 25.0467 174.593 24.9C174.419 24.7533 174.233 24.6533 174.033 24.6C173.846 24.5467 173.593 24.5067 173.273 24.48ZM172.773 23.84C172.946 23.8667 173.099 23.8867 173.233 23.9C173.366 23.9 173.493 23.9 173.613 23.9C174.679 23.9 175.533 23.64 176.173 23.12C176.826 22.5867 177.153 21.76 177.153 20.64C177.153 19.64 176.879 18.88 176.333 18.36C175.786 17.8267 174.979 17.56 173.913 17.56C173.579 17.56 173.199 17.58 172.773 17.62V23.84ZM184.367 31.02C184.353 30.8867 184.353 30.7533 184.367 30.62C184.847 30.58 185.187 30.54 185.387 30.5C185.6 30.46 185.727 30.3667 185.767 30.22C185.82 30.06 185.847 29.8067 185.847 29.46V17.6H183.307C182.773 17.6 182.373 17.66 182.107 17.78C181.84 17.9 181.633 18.1133 181.487 18.42C181.34 18.7133 181.187 19.1467 181.027 19.72C180.907 19.7333 180.78 19.7333 180.647 19.72C180.713 19.2533 180.773 18.78 180.827 18.3C180.88 17.8067 180.927 17.36 180.967 16.96C181.593 16.9867 182.347 17.0067 183.227 17.02C184.107 17.02 185.253 17.02 186.667 17.02C188.107 17.02 189.26 17.02 190.127 17.02C190.993 17.0067 191.74 16.9867 192.367 16.96C192.393 17.3467 192.433 17.7867 192.487 18.28C192.54 18.7733 192.593 19.2533 192.647 19.72C192.5 19.7333 192.367 19.7333 192.247 19.72C192.073 19.1467 191.913 18.7067 191.767 18.4C191.62 18.0933 191.413 17.8867 191.147 17.78C190.893 17.66 190.5 17.6 189.967 17.6H187.447V29.28C187.447 29.68 187.467 29.9733 187.507 30.16C187.56 30.3333 187.687 30.4467 187.887 30.5C188.1 30.54 188.447 30.58 188.927 30.62C188.94 30.7533 188.94 30.8867 188.927 31.02C188.727 31.02 188.48 31.0133 188.187 31C187.907 31 187.627 31 187.347 31C187.067 30.9867 186.833 30.98 186.647 30.98C186.367 30.98 185.993 30.9867 185.527 31C185.06 31.0133 184.673 31.02 184.367 31.02ZM194.02 16.98C194.313 16.98 194.686 16.9867 195.14 17C195.593 17.0133 195.96 17.02 196.24 17.02C196.52 17.02 196.886 17.0133 197.34 17C197.806 16.9867 198.186 16.98 198.48 16.98C198.493 17.1 198.493 17.2267 198.48 17.36C198.04 17.4 197.72 17.4467 197.52 17.5C197.32 17.54 197.193 17.6333 197.14 17.78C197.086 17.9267 197.06 18.1733 197.06 18.52V25.7C197.06 27.26 197.4 28.4467 198.08 29.26C198.773 30.06 199.78 30.46 201.1 30.46C202.486 30.46 203.526 30.02 204.22 29.14C204.926 28.26 205.28 26.9733 205.28 25.28V18.86C205.28 18.4067 205.253 18.0867 205.2 17.9C205.146 17.7133 205.013 17.5933 204.8 17.54C204.586 17.4733 204.233 17.42 203.74 17.38C203.726 17.2467 203.726 17.12 203.74 17C204.006 17 204.326 17.0067 204.7 17.02C205.086 17.02 205.393 17.02 205.62 17.02C205.86 17.02 206.16 17.02 206.52 17.02C206.88 17.0067 207.193 17 207.46 17C207.473 17.12 207.473 17.2467 207.46 17.38C207.006 17.42 206.68 17.4667 206.48 17.52C206.28 17.5733 206.153 17.68 206.1 17.84C206.046 18 206.02 18.28 206.02 18.68V25.58C206.02 27.3 205.586 28.6733 204.72 29.7C203.853 30.7267 202.513 31.24 200.7 31.24C199.113 31.24 197.84 30.8067 196.88 29.94C195.933 29.0733 195.46 27.8067 195.46 26.14V18.7C195.46 18.3 195.433 18.0133 195.38 17.84C195.34 17.6667 195.22 17.5533 195.02 17.5C194.82 17.4467 194.486 17.4 194.02 17.36C194.006 17.24 194.006 17.1133 194.02 16.98ZM217.274 17.36C216.141 17.36 215.194 17.5333 214.434 17.88C213.674 18.2267 213.068 18.7067 212.614 19.32C212.161 19.92 211.834 20.6133 211.634 21.4C211.434 22.1733 211.334 22.9867 211.334 23.84C211.334 25.1867 211.554 26.3733 211.994 27.4C212.448 28.4133 213.128 29.2067 214.034 29.78C214.954 30.34 216.101 30.62 217.474 30.62C217.914 30.62 218.401 30.5933 218.934 30.54C219.468 30.4733 219.981 30.38 220.474 30.26V26.16C220.474 25.76 220.448 25.4733 220.394 25.3C220.341 25.1267 220.201 25.0133 219.974 24.96C219.748 24.9067 219.381 24.86 218.874 24.82C218.861 24.6867 218.861 24.56 218.874 24.44C219.074 24.44 219.321 24.4467 219.614 24.46C219.908 24.46 220.201 24.4667 220.494 24.48C220.788 24.48 221.034 24.48 221.234 24.48C221.434 24.48 221.668 24.48 221.934 24.48C222.214 24.4667 222.474 24.46 222.714 24.46C222.968 24.4467 223.154 24.44 223.274 24.44C223.288 24.56 223.288 24.6867 223.274 24.82C222.874 24.86 222.588 24.9067 222.414 24.96C222.241 25.0133 222.134 25.1133 222.094 25.26C222.054 25.4067 222.034 25.6533 222.034 26V28.7C222.034 29.1533 222.041 29.5467 222.054 29.88C222.081 30.2 222.101 30.4267 222.114 30.56C221.461 30.7733 220.714 30.94 219.874 31.06C219.034 31.18 218.241 31.24 217.494 31.24C215.881 31.24 214.474 30.9667 213.274 30.42C212.088 29.86 211.168 29.0533 210.514 28C209.861 26.9333 209.534 25.64 209.534 24.12C209.534 22.64 209.841 21.3533 210.454 20.26C211.081 19.1533 211.974 18.3 213.134 17.7C214.294 17.0867 215.681 16.78 217.294 16.78C217.748 16.78 218.208 16.8067 218.674 16.86C219.154 16.9 219.701 16.9733 220.314 17.08C220.541 17.12 220.761 17.16 220.974 17.2C221.188 17.24 221.414 17.26 221.654 17.26C221.694 17.26 221.734 17.26 221.774 17.26C221.828 17.26 221.894 17.2533 221.974 17.24C221.988 17.6667 222.008 18.1867 222.034 18.8C222.074 19.4133 222.108 19.9667 222.134 20.46C222.054 20.4733 221.988 20.4867 221.934 20.5C221.881 20.5 221.821 20.5 221.754 20.5C221.608 19.5133 221.168 18.7467 220.434 18.2C219.714 17.64 218.661 17.36 217.274 17.36ZM223.73 31.02C223.717 30.8867 223.717 30.7533 223.73 30.62C224.17 30.58 224.497 30.5333 224.71 30.48C224.937 30.4133 225.117 30.2733 225.25 30.06C225.384 29.8333 225.537 29.4733 225.71 28.98L230.15 17.02C230.257 16.98 230.384 16.9533 230.53 16.94C230.69 16.9133 230.817 16.9 230.91 16.9L235.39 29.1C235.564 29.5667 235.704 29.9 235.81 30.1C235.93 30.3 236.097 30.4267 236.31 30.48C236.524 30.5333 236.857 30.58 237.31 30.62C237.324 30.7533 237.324 30.8867 237.31 31.02C236.964 31.02 236.57 31.0133 236.13 31C235.704 30.9867 235.31 30.98 234.95 30.98C234.577 30.98 234.224 30.9867 233.89 31C233.57 31.0133 233.224 31.02 232.85 31.02C232.837 30.8867 232.837 30.7533 232.85 30.62C233.317 30.58 233.624 30.54 233.77 30.5C233.93 30.4467 234.01 30.3267 234.01 30.14C234.01 30.0733 233.997 29.9933 233.97 29.9C233.944 29.7933 233.904 29.6667 233.85 29.52L232.47 25.66H227.71L226.41 29.3C226.277 29.66 226.21 29.92 226.21 30.08C226.21 30.2933 226.31 30.4267 226.51 30.48C226.71 30.5333 227.037 30.58 227.49 30.62C227.504 30.7533 227.504 30.8867 227.49 31.02C227.157 31.02 226.83 31.0133 226.51 31C226.204 30.9867 225.884 30.98 225.55 30.98C225.284 30.98 224.984 30.9867 224.65 31C224.33 31.0133 224.024 31.02 223.73 31.02ZM227.93 25.04H232.23L230.07 19.02L227.93 25.04ZM238.712 31.02C238.699 30.8867 238.699 30.7533 238.712 30.62C239.166 30.58 239.492 30.54 239.692 30.5C239.892 30.4467 240.012 30.3467 240.052 30.2C240.106 30.0533 240.132 29.8067 240.132 29.46V18.72C240.132 18.32 240.106 18.0333 240.052 17.86C239.999 17.6867 239.872 17.5733 239.672 17.52C239.486 17.4533 239.166 17.4067 238.712 17.38C238.699 17.2467 238.699 17.1133 238.712 16.98C239.019 16.98 239.399 16.9867 239.852 17C240.306 17.0133 240.666 17.02 240.932 17.02C241.106 17.02 241.332 17.02 241.612 17.02C241.892 17.0067 242.172 17 242.452 17C242.746 16.9867 242.986 16.98 243.172 16.98C243.186 17.1133 243.186 17.2467 243.172 17.38C242.706 17.42 242.372 17.46 242.172 17.5C241.972 17.54 241.846 17.6333 241.792 17.78C241.752 17.9267 241.732 18.18 241.732 18.54V29.2C241.732 29.5333 241.732 29.8 241.732 30C241.732 30.1867 241.739 30.3133 241.752 30.38H244.672C245.139 30.38 245.519 30.3467 245.812 30.28C246.106 30.2133 246.339 30.08 246.512 29.88C246.659 29.72 246.812 29.4867 246.972 29.18C247.146 28.86 247.299 28.4733 247.432 28.02C247.552 28.0067 247.672 28.0067 247.792 28.02C247.686 28.62 247.586 29.1867 247.492 29.72C247.412 30.2533 247.346 30.68 247.292 31C246.666 31 245.979 31 245.232 31C244.499 30.9867 243.759 30.98 243.012 30.98C242.279 30.98 241.599 30.98 240.972 30.98C240.786 30.98 240.552 30.9867 240.272 31C239.992 31 239.712 31 239.432 31C239.152 31.0133 238.912 31.02 238.712 31.02ZM141.36 42.98C141.653 42.98 142.027 42.9867 142.48 43C142.933 43.0133 143.3 43.02 143.58 43.02C143.86 43.02 144.227 43.0133 144.68 43C145.147 42.9867 145.527 42.98 145.82 42.98C145.833 43.1 145.833 43.2267 145.82 43.36C145.38 43.4 145.06 43.4467 144.86 43.5C144.66 43.54 144.533 43.6333 144.48 43.78C144.427 43.9267 144.4 44.1733 144.4 44.52V51.7C144.4 53.26 144.74 54.4467 145.42 55.26C146.113 56.06 147.12 56.46 148.44 56.46C149.827 56.46 150.867 56.02 151.56 55.14C152.267 54.26 152.62 52.9733 152.62 51.28V44.86C152.62 44.4067 152.593 44.0867 152.54 43.9C152.487 43.7133 152.353 43.5933 152.14 43.54C151.927 43.4733 151.573 43.42 151.08 43.38C151.067 43.2467 151.067 43.12 151.08 43C151.347 43 151.667 43.0067 152.04 43.02C152.427 43.02 152.733 43.02 152.96 43.02C153.2 43.02 153.5 43.02 153.86 43.02C154.22 43.0067 154.533 43 154.8 43C154.813 43.12 154.813 43.2467 154.8 43.38C154.347 43.42 154.02 43.4667 153.82 43.52C153.62 43.5733 153.493 43.68 153.44 43.84C153.387 44 153.36 44.28 153.36 44.68V51.58C153.36 53.3 152.927 54.6733 152.06 55.7C151.193 56.7267 149.853 57.24 148.04 57.24C146.453 57.24 145.18 56.8067 144.22 55.94C143.273 55.0733 142.8 53.8067 142.8 52.14V44.7C142.8 44.3 142.773 44.0133 142.72 43.84C142.68 43.6667 142.56 43.5533 142.36 43.5C142.16 43.4467 141.827 43.4 141.36 43.36C141.347 43.24 141.347 43.1133 141.36 42.98ZM165.815 54.78L170.755 43C170.955 43.0133 171.168 43.02 171.395 43.02C171.621 43.02 171.808 43.02 171.955 43.02C172.035 43.02 172.175 43.02 172.375 43.02C172.588 43.0067 172.821 43 173.075 43C173.328 43 173.555 43 173.755 43C173.968 42.9867 174.115 42.98 174.195 42.98C174.208 43.1 174.208 43.2267 174.195 43.36H174.175C173.721 43.4 173.395 43.4467 173.195 43.5C172.995 43.54 172.868 43.6333 172.815 43.78C172.775 43.9267 172.755 44.1733 172.755 44.52L172.935 55.3C172.948 55.7 172.981 55.9867 173.035 56.16C173.101 56.3333 173.241 56.4467 173.455 56.5C173.681 56.5533 174.028 56.6 174.495 56.64C174.508 56.76 174.508 56.8867 174.495 57.02C174.415 57.02 174.261 57.0133 174.035 57C173.821 57 173.581 57 173.315 57C173.048 57 172.801 57 172.575 57C172.361 56.9867 172.215 56.98 172.135 56.98C172.055 56.98 171.908 56.9867 171.695 57C171.495 57 171.268 57 171.015 57C170.775 57 170.548 57 170.335 57C170.121 57.0133 169.975 57.02 169.895 57.02C169.881 56.8867 169.881 56.76 169.895 56.64C170.335 56.6 170.655 56.56 170.855 56.52C171.068 56.4667 171.201 56.3667 171.255 56.22C171.321 56.06 171.348 55.8133 171.335 55.48L171.155 43.78L165.655 56.98C165.588 57.0067 165.481 57.0267 165.335 57.04C165.201 57.0533 165.081 57.06 164.975 57.06L159.775 44.1L159.415 55.48C159.401 55.8 159.415 56.0333 159.455 56.18C159.508 56.3133 159.635 56.4067 159.835 56.46C160.048 56.5133 160.381 56.5733 160.835 56.64C160.848 56.76 160.848 56.8867 160.835 57.02C160.741 57.02 160.568 57.0133 160.315 57C160.061 57 159.808 57 159.555 57C159.315 56.9867 159.141 56.98 159.035 56.98C158.968 56.98 158.795 56.9867 158.515 57C158.235 57 157.955 57 157.675 57C157.395 57.0133 157.215 57.02 157.135 57.02C157.121 56.8867 157.121 56.76 157.135 56.64C157.601 56.5867 157.935 56.5333 158.135 56.48C158.348 56.4133 158.488 56.2933 158.555 56.12C158.621 55.9467 158.661 55.6733 158.675 55.3L159.075 44.52C159.088 44.1733 159.068 43.9267 159.015 43.78C158.961 43.6333 158.828 43.54 158.615 43.5C158.401 43.4467 158.055 43.4 157.575 43.36C157.561 43.2267 157.561 43.1 157.575 42.98C157.908 42.98 158.261 42.9867 158.635 43C159.008 43.0133 159.401 43.02 159.815 43.02C159.961 43.02 160.155 43.02 160.395 43.02C160.635 43.02 160.855 43.0133 161.055 43L165.815 54.78ZM183.239 57.02C183.226 56.8867 183.226 56.7533 183.239 56.62C183.706 56.58 184.039 56.54 184.239 56.5C184.452 56.46 184.579 56.3667 184.619 56.22C184.672 56.06 184.699 55.8067 184.699 55.46V44.72C184.699 44.32 184.672 44.0333 184.619 43.86C184.566 43.6867 184.439 43.5733 184.239 43.52C184.052 43.4533 183.732 43.4067 183.279 43.38C183.266 43.2467 183.266 43.1133 183.279 42.98C183.599 42.98 183.852 42.9867 184.039 43C184.239 43 184.486 43.0067 184.779 43.02C185.072 43.02 185.512 43.02 186.099 43.02C186.646 43.02 187.246 43.02 187.899 43.02C188.552 43.0067 189.172 43 189.759 43C190.359 43 190.852 43 191.239 43C191.626 42.9867 191.826 42.98 191.839 42.98C191.892 43.3533 191.946 43.74 191.999 44.14C192.052 44.54 192.119 44.96 192.199 45.4C192.052 45.4133 191.919 45.4133 191.799 45.4C191.666 45.0267 191.539 44.74 191.419 44.54C191.299 44.34 191.159 44.1733 190.999 44.04C190.666 43.76 190.112 43.62 189.339 43.62H186.299V49.66H188.599C189.066 49.66 189.412 49.6333 189.639 49.58C189.866 49.5267 190.026 49.3933 190.119 49.18C190.212 48.9533 190.292 48.5933 190.359 48.1C190.506 48.0867 190.646 48.0867 190.779 48.1C190.779 48.1933 190.772 48.4267 190.759 48.8C190.746 49.16 190.739 49.5667 190.739 50.02C190.739 50.4333 190.746 50.84 190.759 51.24C190.772 51.6267 190.779 51.88 190.779 52C190.659 52.0133 190.519 52.0133 190.359 52C190.306 51.44 190.232 51.0467 190.139 50.82C190.046 50.58 189.892 50.4333 189.679 50.38C189.466 50.3267 189.146 50.3 188.719 50.3H186.299V55.28C186.299 55.5733 186.306 55.8067 186.319 55.98C186.346 56.14 186.406 56.2667 186.499 56.36C186.592 56.4533 186.739 56.5133 186.939 56.54C187.139 56.5667 187.446 56.5933 187.859 56.62C187.872 56.7533 187.872 56.8867 187.859 57.02C187.659 57.02 187.406 57.0133 187.099 57C186.806 57 186.506 57 186.199 57C185.906 56.9867 185.666 56.98 185.479 56.98C185.186 56.98 184.812 56.9867 184.359 57C183.919 57.0133 183.546 57.02 183.239 57.02ZM191.229 57.02C191.215 56.8867 191.215 56.7533 191.229 56.62C191.669 56.58 191.995 56.5333 192.209 56.48C192.435 56.4133 192.615 56.2733 192.749 56.06C192.882 55.8333 193.035 55.4733 193.209 54.98L197.649 43.02C197.755 42.98 197.882 42.9533 198.029 42.94C198.189 42.9133 198.315 42.9 198.409 42.9L202.889 55.1C203.062 55.5667 203.202 55.9 203.309 56.1C203.429 56.3 203.595 56.4267 203.809 56.48C204.022 56.5333 204.355 56.58 204.809 56.62C204.822 56.7533 204.822 56.8867 204.809 57.02C204.462 57.02 204.069 57.0133 203.629 57C203.202 56.9867 202.809 56.98 202.449 56.98C202.075 56.98 201.722 56.9867 201.389 57C201.069 57.0133 200.722 57.02 200.349 57.02C200.335 56.8867 200.335 56.7533 200.349 56.62C200.815 56.58 201.122 56.54 201.269 56.5C201.429 56.4467 201.509 56.3267 201.509 56.14C201.509 56.0733 201.495 55.9933 201.469 55.9C201.442 55.7933 201.402 55.6667 201.349 55.52L199.969 51.66H195.209L193.909 55.3C193.775 55.66 193.709 55.92 193.709 56.08C193.709 56.2933 193.809 56.4267 194.009 56.48C194.209 56.5333 194.535 56.58 194.989 56.62C195.002 56.7533 195.002 56.8867 194.989 57.02C194.655 57.02 194.329 57.0133 194.009 57C193.702 56.9867 193.382 56.98 193.049 56.98C192.782 56.98 192.482 56.9867 192.149 57C191.829 57.0133 191.522 57.02 191.229 57.02ZM195.429 51.04H199.729L197.569 45.02L195.429 51.04ZM209.73 50.48L209.23 50.44V55.28C209.23 55.68 209.257 55.9733 209.31 56.16C209.364 56.3333 209.49 56.4467 209.69 56.5C209.904 56.54 210.25 56.58 210.73 56.62C210.744 56.7533 210.744 56.8867 210.73 57.02C210.544 57.02 210.297 57.0133 209.99 57C209.697 57 209.404 57 209.11 57C208.83 56.9867 208.597 56.98 208.41 56.98C208.237 56.98 208.004 56.9867 207.71 57C207.43 57 207.15 57 206.87 57C206.59 57.0133 206.357 57.02 206.17 57.02C206.157 56.8867 206.157 56.7533 206.17 56.62C206.637 56.58 206.97 56.54 207.17 56.5C207.384 56.46 207.51 56.3667 207.55 56.22C207.604 56.06 207.63 55.8067 207.63 55.46V44.7C207.63 44.3 207.604 44.0133 207.55 43.84C207.497 43.6667 207.364 43.5533 207.15 43.5C206.95 43.4467 206.624 43.4067 206.17 43.38C206.157 43.2467 206.157 43.1133 206.17 42.98C206.357 42.98 206.59 42.9867 206.87 43C207.164 43 207.45 43.0067 207.73 43.02C208.024 43.02 208.257 43.02 208.43 43.02C208.604 43.02 208.864 43.02 209.21 43.02C209.557 43.0067 209.904 43 210.25 43C210.597 42.9867 210.85 42.98 211.01 42.98C211.77 42.98 212.477 43.0933 213.13 43.32C213.784 43.5467 214.31 43.9133 214.71 44.42C215.124 44.9133 215.33 45.58 215.33 46.42C215.33 47.4067 215.037 48.2067 214.45 48.82C213.864 49.4333 213.077 49.8933 212.09 50.2V50.26C212.277 50.3533 212.45 50.4733 212.61 50.62C212.784 50.7533 212.977 50.9533 213.19 51.22C213.35 51.42 213.577 51.74 213.87 52.18C214.177 52.62 214.497 53.1 214.83 53.62C215.177 54.1267 215.49 54.6 215.77 55.04C216.077 55.52 216.337 55.8667 216.55 56.08C216.764 56.28 216.997 56.4133 217.25 56.48C217.504 56.5333 217.844 56.58 218.27 56.62C218.284 56.7533 218.284 56.8867 218.27 57.02C218.084 57.02 217.844 57.0133 217.55 57C217.257 57 216.97 57 216.69 57C216.424 56.9867 216.217 56.98 216.07 56.98C215.91 56.98 215.757 56.9867 215.61 57C215.464 57 215.317 57 215.17 57C215.024 56.7467 214.81 56.4 214.53 55.96C214.25 55.5067 213.937 55.0133 213.59 54.48C213.244 53.9467 212.897 53.4267 212.55 52.92C212.217 52.4 211.917 51.96 211.65 51.6C211.424 51.28 211.224 51.0467 211.05 50.9C210.877 50.7533 210.69 50.6533 210.49 50.6C210.304 50.5467 210.05 50.5067 209.73 50.48ZM209.23 49.84C209.404 49.8667 209.557 49.8867 209.69 49.9C209.824 49.9 209.95 49.9 210.07 49.9C211.137 49.9 211.99 49.64 212.63 49.12C213.284 48.5867 213.61 47.76 213.61 46.64C213.61 45.64 213.337 44.88 212.79 44.36C212.244 43.8267 211.437 43.56 210.37 43.56C210.037 43.56 209.657 43.58 209.23 43.62V49.84ZM232.772 49.9C232.772 51.34 232.472 52.6133 231.872 53.72C231.272 54.8133 230.426 55.6733 229.332 56.3C228.239 56.9267 226.946 57.24 225.452 57.24C223.972 57.24 222.699 56.9333 221.632 56.32C220.566 55.7067 219.746 54.8667 219.172 53.8C218.599 52.72 218.312 51.4933 218.312 50.12C218.312 48.7067 218.612 47.4467 219.212 46.34C219.812 45.2333 220.659 44.3667 221.752 43.74C222.859 43.1 224.159 42.78 225.652 42.78C227.119 42.78 228.379 43.0867 229.432 43.7C230.499 44.3 231.319 45.14 231.892 46.22C232.479 47.2867 232.772 48.5133 232.772 49.9ZM230.992 50.1C230.992 49.26 230.892 48.44 230.692 47.64C230.492 46.84 230.179 46.12 229.752 45.48C229.326 44.84 228.766 44.3333 228.072 43.96C227.379 43.5733 226.539 43.38 225.552 43.38C224.566 43.38 223.726 43.5733 223.032 43.96C222.339 44.3333 221.779 44.84 221.352 45.48C220.926 46.12 220.612 46.8333 220.412 47.62C220.212 48.3933 220.112 49.18 220.112 49.98C220.112 50.78 220.212 51.5733 220.412 52.36C220.612 53.1467 220.932 53.8667 221.372 54.52C221.812 55.1733 222.386 55.6933 223.092 56.08C223.799 56.4667 224.652 56.66 225.652 56.66C226.639 56.66 227.472 56.4733 228.152 56.1C228.846 55.7267 229.399 55.2333 229.812 54.62C230.226 53.9933 230.526 53.2867 230.712 52.5C230.899 51.7133 230.992 50.9133 230.992 50.1ZM235.372 57.02C235.359 56.8867 235.359 56.7533 235.372 56.62C235.826 56.58 236.152 56.54 236.352 56.5C236.552 56.4467 236.672 56.3467 236.712 56.2C236.766 56.0533 236.792 55.8067 236.792 55.46V44.72C236.792 44.32 236.766 44.0333 236.712 43.86C236.659 43.6867 236.532 43.5733 236.332 43.52C236.146 43.4533 235.826 43.4067 235.372 43.38C235.359 43.2467 235.359 43.1133 235.372 42.98C235.679 42.98 236.059 42.9867 236.512 43C236.966 43.0133 237.326 43.02 237.592 43.02C237.766 43.02 237.992 43.02 238.272 43.02C238.552 43.0067 238.832 43 239.112 43C239.406 42.9867 239.646 42.98 239.832 42.98C239.846 43.1133 239.846 43.2467 239.832 43.38C239.366 43.42 239.032 43.46 238.832 43.5C238.632 43.54 238.506 43.6333 238.452 43.78C238.412 43.9267 238.392 44.18 238.392 44.54V55.2C238.392 55.5333 238.392 55.8 238.392 56C238.392 56.1867 238.399 56.3133 238.412 56.38H241.332C241.799 56.38 242.179 56.3467 242.472 56.28C242.766 56.2133 242.999 56.08 243.172 55.88C243.319 55.72 243.472 55.4867 243.632 55.18C243.806 54.86 243.959 54.4733 244.092 54.02C244.212 54.0067 244.332 54.0067 244.452 54.02C244.346 54.62 244.246 55.1867 244.152 55.72C244.072 56.2533 244.006 56.68 243.952 57C243.326 57 242.639 57 241.892 57C241.159 56.9867 240.419 56.98 239.672 56.98C238.939 56.98 238.259 56.98 237.632 56.98C237.446 56.98 237.212 56.9867 236.932 57C236.652 57 236.372 57 236.092 57C235.812 57.0133 235.572 57.02 235.372 57.02ZM146.2 76.76C145.973 76.76 145.767 76.7533 145.58 76.74C145.393 76.7133 145.167 76.6667 144.9 76.6V81.28C144.9 81.6 144.907 81.84 144.92 82C144.947 82.1467 145.007 82.2667 145.1 82.36C145.207 82.4533 145.353 82.5133 145.54 82.54C145.727 82.5667 146.047 82.5933 146.5 82.62C146.513 82.7533 146.513 82.8867 146.5 83.02C146.287 83.02 146.027 83.0133 145.72 83C145.413 83 145.113 83 144.82 83C144.527 82.9867 144.287 82.98 144.1 82.98C143.807 82.98 143.433 82.9867 142.98 83C142.527 83.0133 142.147 83.02 141.84 83.02C141.827 82.8867 141.827 82.7533 141.84 82.62C142.307 82.58 142.64 82.54 142.84 82.5C143.053 82.46 143.18 82.3667 143.22 82.22C143.273 82.06 143.3 81.8067 143.3 81.46V70.72C143.3 70.32 143.273 70.0333 143.22 69.86C143.167 69.6867 143.04 69.5733 142.84 69.52C142.64 69.4533 142.307 69.4067 141.84 69.38C141.827 69.2467 141.827 69.1133 141.84 68.98C142.04 68.98 142.28 68.9867 142.56 69C142.853 69 143.14 69.0067 143.42 69.02C143.7 69.02 143.927 69.02 144.1 69.02C144.287 69.02 144.553 69.02 144.9 69.02C145.247 69.0067 145.593 69 145.94 69C146.3 68.9867 146.56 68.98 146.72 68.98C147.493 68.98 148.207 69.0933 148.86 69.32C149.527 69.5467 150.06 69.9267 150.46 70.46C150.873 70.98 151.08 71.7 151.08 72.62C151.08 73.54 150.867 74.3067 150.44 74.92C150.013 75.5333 149.433 75.9933 148.7 76.3C147.967 76.6067 147.133 76.76 146.2 76.76ZM144.9 76.04C145.113 76.0933 145.307 76.1267 145.48 76.14C145.667 76.1533 145.82 76.16 145.94 76.16C147.047 76.16 147.887 75.8533 148.46 75.24C149.047 74.6267 149.34 73.7933 149.34 72.74C149.34 71.7533 149.067 70.98 148.52 70.42C147.973 69.8467 147.147 69.56 146.04 69.56C145.893 69.56 145.713 69.5667 145.5 69.58C145.287 69.58 145.087 69.5933 144.9 69.62V76.04ZM150.064 83.02C150.051 82.8867 150.051 82.7533 150.064 82.62C150.504 82.58 150.831 82.5333 151.044 82.48C151.271 82.4133 151.451 82.2733 151.584 82.06C151.717 81.8333 151.871 81.4733 152.044 80.98L156.484 69.02C156.591 68.98 156.717 68.9533 156.864 68.94C157.024 68.9133 157.151 68.9 157.244 68.9L161.724 81.1C161.897 81.5667 162.037 81.9 162.144 82.1C162.264 82.3 162.431 82.4267 162.644 82.48C162.857 82.5333 163.191 82.58 163.644 82.62C163.657 82.7533 163.657 82.8867 163.644 83.02C163.297 83.02 162.904 83.0133 162.464 83C162.037 82.9867 161.644 82.98 161.284 82.98C160.911 82.98 160.557 82.9867 160.224 83C159.904 83.0133 159.557 83.02 159.184 83.02C159.171 82.8867 159.171 82.7533 159.184 82.62C159.651 82.58 159.957 82.54 160.104 82.5C160.264 82.4467 160.344 82.3267 160.344 82.14C160.344 82.0733 160.331 81.9933 160.304 81.9C160.277 81.7933 160.237 81.6667 160.184 81.52L158.804 77.66H154.044L152.744 81.3C152.611 81.66 152.544 81.92 152.544 82.08C152.544 82.2933 152.644 82.4267 152.844 82.48C153.044 82.5333 153.371 82.58 153.824 82.62C153.837 82.7533 153.837 82.8867 153.824 83.02C153.491 83.02 153.164 83.0133 152.844 83C152.537 82.9867 152.217 82.98 151.884 82.98C151.617 82.98 151.317 82.9867 150.984 83C150.664 83.0133 150.357 83.02 150.064 83.02ZM154.264 77.04H158.564L156.404 71.02L154.264 77.04ZM168.566 76.48L168.066 76.44V81.28C168.066 81.68 168.092 81.9733 168.146 82.16C168.199 82.3333 168.326 82.4467 168.526 82.5C168.739 82.54 169.086 82.58 169.566 82.62C169.579 82.7533 169.579 82.8867 169.566 83.02C169.379 83.02 169.132 83.0133 168.826 83C168.532 83 168.239 83 167.946 83C167.666 82.9867 167.432 82.98 167.246 82.98C167.072 82.98 166.839 82.9867 166.546 83C166.266 83 165.986 83 165.706 83C165.426 83.0133 165.192 83.02 165.006 83.02C164.992 82.8867 164.992 82.7533 165.006 82.62C165.472 82.58 165.806 82.54 166.006 82.5C166.219 82.46 166.346 82.3667 166.386 82.22C166.439 82.06 166.466 81.8067 166.466 81.46V70.7C166.466 70.3 166.439 70.0133 166.386 69.84C166.332 69.6667 166.199 69.5533 165.986 69.5C165.786 69.4467 165.459 69.4067 165.006 69.38C164.992 69.2467 164.992 69.1133 165.006 68.98C165.192 68.98 165.426 68.9867 165.706 69C165.999 69 166.286 69.0067 166.566 69.02C166.859 69.02 167.092 69.02 167.266 69.02C167.439 69.02 167.699 69.02 168.046 69.02C168.392 69.0067 168.739 69 169.086 69C169.432 68.9867 169.686 68.98 169.846 68.98C170.606 68.98 171.312 69.0933 171.966 69.32C172.619 69.5467 173.146 69.9133 173.546 70.42C173.959 70.9133 174.166 71.58 174.166 72.42C174.166 73.4067 173.872 74.2067 173.286 74.82C172.699 75.4333 171.912 75.8933 170.926 76.2V76.26C171.112 76.3533 171.286 76.4733 171.446 76.62C171.619 76.7533 171.812 76.9533 172.026 77.22C172.186 77.42 172.412 77.74 172.706 78.18C173.012 78.62 173.332 79.1 173.666 79.62C174.012 80.1267 174.326 80.6 174.606 81.04C174.912 81.52 175.172 81.8667 175.386 82.08C175.599 82.28 175.832 82.4133 176.086 82.48C176.339 82.5333 176.679 82.58 177.106 82.62C177.119 82.7533 177.119 82.8867 177.106 83.02C176.919 83.02 176.679 83.0133 176.386 83C176.092 83 175.806 83 175.526 83C175.259 82.9867 175.052 82.98 174.906 82.98C174.746 82.98 174.592 82.9867 174.446 83C174.299 83 174.152 83 174.006 83C173.859 82.7467 173.646 82.4 173.366 81.96C173.086 81.5067 172.772 81.0133 172.426 80.48C172.079 79.9467 171.732 79.4267 171.386 78.92C171.052 78.4 170.752 77.96 170.486 77.6C170.259 77.28 170.059 77.0467 169.886 76.9C169.712 76.7533 169.526 76.6533 169.326 76.6C169.139 76.5467 168.886 76.5067 168.566 76.48ZM168.066 75.84C168.239 75.8667 168.392 75.8867 168.526 75.9C168.659 75.9 168.786 75.9 168.906 75.9C169.972 75.9 170.826 75.64 171.466 75.12C172.119 74.5867 172.446 73.76 172.446 72.64C172.446 71.64 172.172 70.88 171.626 70.36C171.079 69.8267 170.272 69.56 169.206 69.56C168.872 69.56 168.492 69.58 168.066 69.62V75.84ZM176.12 83.02C176.107 82.8867 176.107 82.7533 176.12 82.62C176.56 82.58 176.887 82.5333 177.1 82.48C177.327 82.4133 177.507 82.2733 177.64 82.06C177.774 81.8333 177.927 81.4733 178.1 80.98L182.54 69.02C182.647 68.98 182.774 68.9533 182.92 68.94C183.08 68.9133 183.207 68.9 183.3 68.9L187.78 81.1C187.954 81.5667 188.094 81.9 188.2 82.1C188.32 82.3 188.487 82.4267 188.7 82.48C188.914 82.5333 189.247 82.58 189.7 82.62C189.714 82.7533 189.714 82.8867 189.7 83.02C189.354 83.02 188.96 83.0133 188.52 83C188.094 82.9867 187.7 82.98 187.34 82.98C186.967 82.98 186.614 82.9867 186.28 83C185.96 83.0133 185.614 83.02 185.24 83.02C185.227 82.8867 185.227 82.7533 185.24 82.62C185.707 82.58 186.014 82.54 186.16 82.5C186.32 82.4467 186.4 82.3267 186.4 82.14C186.4 82.0733 186.387 81.9933 186.36 81.9C186.334 81.7933 186.294 81.6667 186.24 81.52L184.86 77.66H180.1L178.8 81.3C178.667 81.66 178.6 81.92 178.6 82.08C178.6 82.2933 178.7 82.4267 178.9 82.48C179.1 82.5333 179.427 82.58 179.88 82.62C179.894 82.7533 179.894 82.8867 179.88 83.02C179.547 83.02 179.22 83.0133 178.9 83C178.594 82.9867 178.274 82.98 177.94 82.98C177.674 82.98 177.374 82.9867 177.04 83C176.72 83.0133 176.414 83.02 176.12 83.02ZM180.32 77.04H184.62L182.46 71.02L180.32 77.04ZM196.718 83.02C196.705 82.8867 196.705 82.7533 196.718 82.62C197.172 82.58 197.498 82.54 197.698 82.5C197.898 82.4467 198.018 82.3467 198.058 82.2C198.112 82.0533 198.138 81.8067 198.138 81.46V70.72C198.138 70.32 198.112 70.0333 198.058 69.86C198.005 69.6867 197.878 69.5733 197.678 69.52C197.492 69.4533 197.172 69.4067 196.718 69.38C196.705 69.2467 196.705 69.1133 196.718 68.98C197.052 68.98 197.332 68.9867 197.558 69C197.798 69 198.072 69.0067 198.378 69.02C198.698 69.02 199.132 69.02 199.678 69.02C200.252 69.02 200.832 69.02 201.418 69.02C202.005 69.0067 202.552 69 203.058 69C203.565 69 203.985 69 204.318 69C204.652 68.9867 204.845 68.98 204.898 68.98C204.978 69.74 205.092 70.5467 205.238 71.4C205.092 71.4133 204.958 71.4133 204.838 71.4C204.732 71.04 204.618 70.7533 204.498 70.54C204.378 70.3133 204.252 70.14 204.118 70.02C203.945 69.86 203.725 69.7533 203.458 69.7C203.205 69.6467 202.885 69.62 202.498 69.62H199.738V75.46H201.838C202.305 75.46 202.652 75.4333 202.878 75.38C203.105 75.3267 203.265 75.1933 203.358 74.98C203.452 74.7533 203.532 74.3933 203.598 73.9C203.745 73.8867 203.885 73.8867 204.018 73.9C204.018 73.9933 204.012 74.2267 203.998 74.6C203.985 74.96 203.978 75.3667 203.978 75.82C203.978 76.2333 203.985 76.6267 203.998 77C204.012 77.36 204.018 77.6 204.018 77.72C203.898 77.7333 203.758 77.7333 203.598 77.72C203.545 77.1867 203.472 76.8133 203.378 76.6C203.285 76.3733 203.132 76.2333 202.918 76.18C202.705 76.1267 202.385 76.1 201.958 76.1H199.738V82.38H202.398C202.878 82.38 203.285 82.3533 203.618 82.3C203.965 82.2333 204.232 82.1067 204.418 81.92C204.552 81.7867 204.692 81.5733 204.838 81.28C204.998 80.9867 205.158 80.64 205.318 80.24C205.438 80.2267 205.565 80.2267 205.698 80.24C205.592 80.7733 205.498 81.2867 205.418 81.78C205.352 82.2733 205.298 82.68 205.258 83C204.818 83 204.312 83 203.738 83C203.165 83 202.585 83 201.998 83C201.412 82.9867 200.878 82.98 200.398 82.98C199.918 82.98 199.552 82.98 199.298 82.98C198.845 82.98 198.472 82.9867 198.178 83C197.898 83 197.652 83 197.438 83C197.225 83.0133 196.985 83.02 196.718 83.02ZM207.986 68.98C208.28 68.98 208.653 68.9867 209.106 69C209.56 69.0133 209.926 69.02 210.206 69.02C210.486 69.02 210.853 69.0133 211.306 69C211.773 68.9867 212.153 68.98 212.446 68.98C212.46 69.1 212.46 69.2267 212.446 69.36C212.006 69.4 211.686 69.4467 211.486 69.5C211.286 69.54 211.16 69.6333 211.106 69.78C211.053 69.9267 211.026 70.1733 211.026 70.52V77.7C211.026 79.26 211.366 80.4467 212.046 81.26C212.74 82.06 213.746 82.46 215.066 82.46C216.453 82.46 217.493 82.02 218.186 81.14C218.893 80.26 219.246 78.9733 219.246 77.28V70.86C219.246 70.4067 219.22 70.0867 219.166 69.9C219.113 69.7133 218.98 69.5933 218.766 69.54C218.553 69.4733 218.2 69.42 217.706 69.38C217.693 69.2467 217.693 69.12 217.706 69C217.973 69 218.293 69.0067 218.666 69.02C219.053 69.02 219.36 69.02 219.586 69.02C219.826 69.02 220.126 69.02 220.486 69.02C220.846 69.0067 221.16 69 221.426 69C221.44 69.12 221.44 69.2467 221.426 69.38C220.973 69.42 220.646 69.4667 220.446 69.52C220.246 69.5733 220.12 69.68 220.066 69.84C220.013 70 219.986 70.28 219.986 70.68V77.58C219.986 79.3 219.553 80.6733 218.686 81.7C217.82 82.7267 216.48 83.24 214.666 83.24C213.08 83.24 211.806 82.8067 210.846 81.94C209.9 81.0733 209.426 79.8067 209.426 78.14V70.7C209.426 70.3 209.4 70.0133 209.346 69.84C209.306 69.6667 209.186 69.5533 208.986 69.5C208.786 69.4467 208.453 69.4 207.986 69.36C207.973 69.24 207.973 69.1133 207.986 68.98ZM227.701 76.48L227.201 76.44V81.28C227.201 81.68 227.228 81.9733 227.281 82.16C227.334 82.3333 227.461 82.4467 227.661 82.5C227.874 82.54 228.221 82.58 228.701 82.62C228.714 82.7533 228.714 82.8867 228.701 83.02C228.514 83.02 228.268 83.0133 227.961 83C227.668 83 227.374 83 227.081 83C226.801 82.9867 226.568 82.98 226.381 82.98C226.208 82.98 225.974 82.9867 225.681 83C225.401 83 225.121 83 224.841 83C224.561 83.0133 224.328 83.02 224.141 83.02C224.128 82.8867 224.128 82.7533 224.141 82.62C224.608 82.58 224.941 82.54 225.141 82.5C225.354 82.46 225.481 82.3667 225.521 82.22C225.574 82.06 225.601 81.8067 225.601 81.46V70.7C225.601 70.3 225.574 70.0133 225.521 69.84C225.468 69.6667 225.334 69.5533 225.121 69.5C224.921 69.4467 224.594 69.4067 224.141 69.38C224.128 69.2467 224.128 69.1133 224.141 68.98C224.328 68.98 224.561 68.9867 224.841 69C225.134 69 225.421 69.0067 225.701 69.02C225.994 69.02 226.228 69.02 226.401 69.02C226.574 69.02 226.834 69.02 227.181 69.02C227.528 69.0067 227.874 69 228.221 69C228.568 68.9867 228.821 68.98 228.981 68.98C229.741 68.98 230.448 69.0933 231.101 69.32C231.754 69.5467 232.281 69.9133 232.681 70.42C233.094 70.9133 233.301 71.58 233.301 72.42C233.301 73.4067 233.008 74.2067 232.421 74.82C231.834 75.4333 231.048 75.8933 230.061 76.2V76.26C230.248 76.3533 230.421 76.4733 230.581 76.62C230.754 76.7533 230.948 76.9533 231.161 77.22C231.321 77.42 231.548 77.74 231.841 78.18C232.148 78.62 232.468 79.1 232.801 79.62C233.148 80.1267 233.461 80.6 233.741 81.04C234.048 81.52 234.308 81.8667 234.521 82.08C234.734 82.28 234.968 82.4133 235.221 82.48C235.474 82.5333 235.814 82.58 236.241 82.62C236.254 82.7533 236.254 82.8867 236.241 83.02C236.054 83.02 235.814 83.0133 235.521 83C235.228 83 234.941 83 234.661 83C234.394 82.9867 234.188 82.98 234.041 82.98C233.881 82.98 233.728 82.9867 233.581 83C233.434 83 233.288 83 233.141 83C232.994 82.7467 232.781 82.4 232.501 81.96C232.221 81.5067 231.908 81.0133 231.561 80.48C231.214 79.9467 230.868 79.4267 230.521 78.92C230.188 78.4 229.888 77.96 229.621 77.6C229.394 77.28 229.194 77.0467 229.021 76.9C228.848 76.7533 228.661 76.6533 228.461 76.6C228.274 76.5467 228.021 76.5067 227.701 76.48ZM227.201 75.84C227.374 75.8667 227.528 75.8867 227.661 75.9C227.794 75.9 227.921 75.9 228.041 75.9C229.108 75.9 229.961 75.64 230.601 75.12C231.254 74.5867 231.581 73.76 231.581 72.64C231.581 71.64 231.308 70.88 230.761 70.36C230.214 69.8267 229.408 69.56 228.341 69.56C228.008 69.56 227.628 69.58 227.201 69.62V75.84ZM250.743 75.9C250.743 77.34 250.443 78.6133 249.843 79.72C249.243 80.8133 248.396 81.6733 247.303 82.3C246.209 82.9267 244.916 83.24 243.423 83.24C241.943 83.24 240.669 82.9333 239.603 82.32C238.536 81.7067 237.716 80.8667 237.143 79.8C236.569 78.72 236.283 77.4933 236.283 76.12C236.283 74.7067 236.583 73.4467 237.183 72.34C237.783 71.2333 238.629 70.3667 239.723 69.74C240.829 69.1 242.129 68.78 243.623 68.78C245.089 68.78 246.349 69.0867 247.403 69.7C248.469 70.3 249.289 71.14 249.863 72.22C250.449 73.2867 250.743 74.5133 250.743 75.9ZM248.963 76.1C248.963 75.26 248.863 74.44 248.663 73.64C248.463 72.84 248.149 72.12 247.723 71.48C247.296 70.84 246.736 70.3333 246.043 69.96C245.349 69.5733 244.509 69.38 243.523 69.38C242.536 69.38 241.696 69.5733 241.003 69.96C240.309 70.3333 239.749 70.84 239.323 71.48C238.896 72.12 238.583 72.8333 238.383 73.62C238.183 74.3933 238.083 75.18 238.083 75.98C238.083 76.78 238.183 77.5733 238.383 78.36C238.583 79.1467 238.903 79.8667 239.343 80.52C239.783 81.1733 240.356 81.6933 241.063 82.08C241.769 82.4667 242.623 82.66 243.623 82.66C244.609 82.66 245.443 82.4733 246.123 82.1C246.816 81.7267 247.369 81.2333 247.783 80.62C248.196 79.9933 248.496 79.2867 248.683 78.5C248.869 77.7133 248.963 76.9133 248.963 76.1ZM257.663 76.76C257.436 76.76 257.229 76.7533 257.043 76.74C256.856 76.7133 256.629 76.6667 256.363 76.6V81.28C256.363 81.6 256.369 81.84 256.383 82C256.409 82.1467 256.469 82.2667 256.563 82.36C256.669 82.4533 256.816 82.5133 257.003 82.54C257.189 82.5667 257.509 82.5933 257.963 82.62C257.976 82.7533 257.976 82.8867 257.963 83.02C257.749 83.02 257.489 83.0133 257.183 83C256.876 83 256.576 83 256.283 83C255.989 82.9867 255.749 82.98 255.563 82.98C255.269 82.98 254.896 82.9867 254.443 83C253.989 83.0133 253.609 83.02 253.303 83.02C253.289 82.8867 253.289 82.7533 253.303 82.62C253.769 82.58 254.103 82.54 254.303 82.5C254.516 82.46 254.643 82.3667 254.683 82.22C254.736 82.06 254.763 81.8067 254.763 81.46V70.72C254.763 70.32 254.736 70.0333 254.683 69.86C254.629 69.6867 254.503 69.5733 254.303 69.52C254.103 69.4533 253.769 69.4067 253.303 69.38C253.289 69.2467 253.289 69.1133 253.303 68.98C253.503 68.98 253.743 68.9867 254.023 69C254.316 69 254.603 69.0067 254.883 69.02C255.163 69.02 255.389 69.02 255.563 69.02C255.749 69.02 256.016 69.02 256.363 69.02C256.709 69.0067 257.056 69 257.403 69C257.763 68.9867 258.023 68.98 258.183 68.98C258.956 68.98 259.669 69.0933 260.323 69.32C260.989 69.5467 261.523 69.9267 261.923 70.46C262.336 70.98 262.543 71.7 262.543 72.62C262.543 73.54 262.329 74.3067 261.903 74.92C261.476 75.5333 260.896 75.9933 260.163 76.3C259.429 76.6067 258.596 76.76 257.663 76.76ZM256.363 76.04C256.576 76.0933 256.769 76.1267 256.943 76.14C257.129 76.1533 257.283 76.16 257.403 76.16C258.509 76.16 259.349 75.8533 259.923 75.24C260.509 74.6267 260.803 73.7933 260.803 72.74C260.803 71.7533 260.529 70.98 259.983 70.42C259.436 69.8467 258.609 69.56 257.503 69.56C257.356 69.56 257.176 69.5667 256.963 69.58C256.749 69.58 256.549 69.5933 256.363 69.62V76.04ZM261.527 83.02C261.514 82.8867 261.514 82.7533 261.527 82.62C261.967 82.58 262.294 82.5333 262.507 82.48C262.734 82.4133 262.914 82.2733 263.047 82.06C263.18 81.8333 263.334 81.4733 263.507 80.98L267.947 69.02C268.054 68.98 268.18 68.9533 268.327 68.94C268.487 68.9133 268.614 68.9 268.707 68.9L273.187 81.1C273.36 81.5667 273.5 81.9 273.607 82.1C273.727 82.3 273.894 82.4267 274.107 82.48C274.32 82.5333 274.654 82.58 275.107 82.62C275.12 82.7533 275.12 82.8867 275.107 83.02C274.76 83.02 274.367 83.0133 273.927 83C273.5 82.9867 273.107 82.98 272.747 82.98C272.374 82.98 272.02 82.9867 271.687 83C271.367 83.0133 271.02 83.02 270.647 83.02C270.634 82.8867 270.634 82.7533 270.647 82.62C271.114 82.58 271.42 82.54 271.567 82.5C271.727 82.4467 271.807 82.3267 271.807 82.14C271.807 82.0733 271.794 81.9933 271.767 81.9C271.74 81.7933 271.7 81.6667 271.647 81.52L270.267 77.66H265.507L264.207 81.3C264.074 81.66 264.007 81.92 264.007 82.08C264.007 82.2933 264.107 82.4267 264.307 82.48C264.507 82.5333 264.834 82.58 265.287 82.62C265.3 82.7533 265.3 82.8867 265.287 83.02C264.954 83.02 264.627 83.0133 264.307 83C264 82.9867 263.68 82.98 263.347 82.98C263.08 82.98 262.78 82.9867 262.447 83C262.127 83.0133 261.82 83.02 261.527 83.02ZM265.727 77.04H270.027L267.867 71.02L265.727 77.04Z" fill="white"/>
<defs>
<filter id="filter0_b_392_83" x="3.67456" y="13.1494" width="75.8705" height="73.4067" filterUnits="userSpaceOnUse" color-interpolation-filters="sRGB">
<feFlood flood-opacity="0" result="BackgroundImageFix"/>
<feGaussianBlur in="BackgroundImageFix" stdDeviation="2"/>
<feComposite in2="SourceAlpha" operator="in" result="effect1_backgroundBlur_392_83"/>
<feBlend mode="normal" in="SourceGraphic" in2="effect1_backgroundBlur_392_83" result="shape"/>
</filter>
<filter id="filter1_d_392_83" x="3.67456" y="17.1494" width="75.8705" height="73.4067" filterUnits="userSpaceOnUse" color-interpolation-filters="sRGB">
<feFlood flood-opacity="0" result="BackgroundImageFix"/>
<feColorMatrix in="SourceAlpha" type="matrix" values="0 0 0 0 0 0 0 0 0 0 0 0 0 0 0 0 0 0 127 0" result="hardAlpha"/>
<feOffset dy="4"/>
<feGaussianBlur stdDeviation="2"/>
<feComposite in2="hardAlpha" operator="out"/>
<feColorMatrix type="matrix" values="0 0 0 0 0 0 0 0 0 0 0 0 0 0 0 0 0 0 0.25 0"/>
<feBlend mode="normal" in2="BackgroundImageFix" result="effect1_dropShadow_392_83"/>
<feBlend mode="normal" in="SourceGraphic" in2="effect1_dropShadow_392_83" result="shape"/>
</filter>
<clipPath id="clip0_392_83">
<rect width="71" height="76" fill="white" transform="translate(7 12)"/>
</clipPath>
</defs>
</svg>
