<svg width="14" height="14" viewBox="0 0 14 14" fill="none" xmlns="http://www.w3.org/2000/svg">
<g clip-path="url(#clip0_245_738)">
<path d="M9.21118 3.5C9.21118 2.91984 8.98071 2.36344 8.57048 1.9532C8.16024 1.54297 7.60384 1.3125 7.02368 1.3125C6.44352 1.3125 5.88712 1.54297 5.47689 1.9532C5.06665 2.36344 4.83618 2.91984 4.83618 3.5C4.83618 4.08016 5.06665 4.63656 5.47689 5.0468C5.88712 5.45703 6.44352 5.6875 7.02368 5.6875C7.60384 5.6875 8.16024 5.45703 8.57048 5.0468C8.98071 4.63656 9.21118 4.08016 9.21118 3.5ZM3.52368 3.5C3.52368 2.57174 3.89243 1.6815 4.54881 1.02513C5.20518 0.368749 6.09542 0 7.02368 0C7.95194 0 8.84218 0.368749 9.49856 1.02513C10.1549 1.6815 10.5237 2.57174 10.5237 3.5C10.5237 4.42826 10.1549 5.3185 9.49856 5.97487C8.84218 6.63125 7.95194 7 7.02368 7C6.09542 7 5.20518 6.63125 4.54881 5.97487C3.89243 5.3185 3.52368 4.42826 3.52368 3.5ZM2.24673 12.6875H11.8034C11.56 10.9566 10.0725 9.625 8.27602 9.625H5.77681C3.98032 9.625 2.49282 10.9566 2.24946 12.6875H2.24673ZM0.898682 13.1879C0.898682 10.4945 3.08071 8.3125 5.77407 8.3125H8.27329C10.9667 8.3125 13.1487 10.4945 13.1487 13.1879C13.1487 13.6363 12.785 14 12.3366 14H1.71079C1.26235 14 0.898682 13.6363 0.898682 13.1879Z" fill="white"/>
</g>
<defs>
<clipPath id="clip0_245_738">
<rect width="12.25" height="14" fill="white" transform="translate(0.898682)"/>
</clipPath>
</defs>
</svg>
